<?xml version="1.0" standalone="no"?>
<!DOCTYPE svg PUBLIC "-//W3C//DTD SVG 20010904//EN"
 "http://www.w3.org/TR/2001/REC-SVG-20010904/DTD/svg10.dtd">
<svg version="1.0" xmlns="http://www.w3.org/2000/svg"
 width="629.000000pt" height="629.000000pt" viewBox="0 0 629.000000 629.000000"
 preserveAspectRatio="xMidYMid meet">
<metadata>
Created by potrace 1.11, written by Peter Selinger 2001-2013
</metadata>
<g transform="translate(0.000000,629.000000) scale(0.100000,-0.100000)"
fill="#000000" stroke="none">
<path d="M3459 4586 c-2 -2 -27 -6 -56 -10 -137 -16 -289 -65 -442 -142 -68
-35 -127 -67 -130 -71 -3 -5 -33 -28 -66 -52 -90 -68 -179 -163 -295 -315 -58
-76 -112 -148 -120 -160 -12 -17 -111 -147 -138 -181 -4 -5 -84 -111 -177
-235 -161 -214 -262 -347 -288 -380 -7 -8 -35 -47 -64 -85 -61 -83 -91 -112
-158 -154 -171 -108 -389 -76 -530 76 -86 92 -104 163 -66 263 80 211 271 318
491 276 63 -12 174 -72 222 -119 l47 -47 91 120 91 120 -33 30 c-18 16 -36 30
-40 30 -15 0 -8 17 22 55 l30 38 -37 35 c-335 306 -849 255 -1100 -110 -50
-72 -90 -161 -113 -248 -16 -59 -20 -214 -8 -276 5 -27 11 -71 14 -98 11 -122
73 -290 136 -370 148 -189 344 -290 570 -295 235 -5 445 95 594 284 37 47 181
237 367 485 73 96 134 177 137 180 3 3 32 41 65 85 34 44 124 163 200 265 77
102 153 200 170 219 156 178 364 294 597 331 66 11 238 10 347 -2 20 -3 39 17
117 117 51 66 93 123 93 127 1 4 -18 12 -41 19 -71 19 -73 20 -62 27 23 16 84
111 75 117 -6 3 -52 15 -103 27 -67 15 -136 22 -249 24 -86 2 -158 2 -160 0z"/>
<path d="M4825 4533 c-122 -14 -316 -66 -403 -108 -29 -14 -54 -25 -57 -25 -2
0 -39 -20 -80 -45 -171 -101 -293 -216 -451 -426 -56 -74 -166 -219 -246 -324
-79 -104 -242 -320 -362 -480 -121 -159 -230 -303 -243 -320 -13 -16 -27 -34
-31 -40 -4 -5 -29 -38 -55 -72 l-47 -63 43 0 c23 0 57 4 75 9 l32 10 -22 -32
c-12 -18 -26 -36 -30 -42 -52 -66 -67 -90 -61 -96 10 -10 165 14 225 34 165
57 279 141 386 287 30 41 58 77 61 80 3 3 67 86 141 185 506 674 558 736 687
826 305 211 694 244 1021 87 250 -120 431 -323 521 -586 25 -71 32 -110 32
-170 2 -309 -137 -603 -376 -791 -377 -299 -938 -284 -1300 33 -22 20 -42 36
-45 36 -3 0 -24 -24 -45 -52 -22 -29 -42 -55 -45 -58 -3 -3 -26 -33 -52 -67
l-48 -62 40 -32 c22 -18 40 -36 40 -41 0 -5 -11 -24 -25 -42 -29 -38 -30 -45
-12 -60 223 -185 463 -291 732 -322 71 -8 236 -9 285 -1 19 3 58 9 85 12 53 8
217 50 250 65 232 104 330 167 453 289 184 183 303 399 363 663 23 102 35 356
19 438 -4 25 -11 68 -14 95 -16 125 -18 136 -41 231 -40 156 -126 338 -219
459 -160 208 -396 377 -633 454 -78 25 -115 35 -228 56 -35 7 -276 13 -320 8z"/>
<path d="M1217 4454 c-1 -1 -31 -5 -67 -8 -83 -8 -250 -49 -331 -82 -362 -146
-630 -426 -748 -780 -36 -110 -40 -125 -60 -249 -10 -59 -8 -355 2 -372 3 -4
8 -33 11 -63 4 -30 9 -66 11 -80 3 -14 7 -41 10 -60 14 -87 55 -206 109 -321
148 -317 463 -586 801 -684 481 -139 986 -2 1327 359 31 34 96 113 143 176 47
63 93 123 101 133 8 10 112 147 231 305 119 158 265 350 323 427 58 77 184
244 280 370 95 127 184 244 197 260 13 17 27 35 31 40 29 37 27 38 -47 31
l-72 -7 42 58 c24 32 52 68 63 81 20 23 19 24 -24 24 -105 0 -252 -48 -363
-119 -85 -54 -143 -112 -237 -238 -41 -55 -77 -102 -80 -105 -3 -3 -23 -30
-45 -60 -22 -30 -42 -57 -45 -60 -3 -3 -45 -59 -95 -125 -49 -66 -92 -122 -95
-125 -3 -3 -86 -113 -185 -245 -99 -132 -182 -242 -185 -245 -3 -3 -38 -48
-78 -101 -85 -112 -171 -198 -260 -258 -60 -40 -176 -101 -224 -116 -13 -4
-27 -9 -33 -11 -5 -2 -50 -13 -100 -25 -95 -22 -273 -30 -370 -16 -378 56
-692 327 -806 697 -37 120 -26 309 28 470 20 61 99 222 121 246 9 10 30 37 47
59 72 96 195 196 321 259 365 183 803 137 1103 -115 40 -33 76 -57 80 -52 5 4
45 57 91 117 l83 110 -42 36 -41 36 30 41 30 41 -37 34 c-34 30 -134 102 -188
135 -121 74 -341 149 -495 169 -52 6 -258 13 -263 8z"/>
<path d="M4805 3944 c-157 -32 -302 -114 -404 -227 -19 -22 -127 -161 -239
-310 -112 -150 -208 -279 -215 -287 -7 -9 -32 -42 -57 -75 -266 -353 -352
-448 -484 -533 -58 -37 -163 -92 -186 -97 -3 0 -28 -9 -56 -18 -96 -33 -203
-46 -339 -42 -71 2 -139 6 -150 10 -16 5 -28 -5 -60 -47 -22 -29 -42 -55 -45
-58 -11 -9 -110 -150 -110 -155 0 -3 7 -5 15 -5 8 0 33 -5 54 -12 l39 -12 -37
-51 c-21 -27 -40 -55 -44 -61 -7 -12 86 -39 161 -49 18 -2 46 -7 62 -10 49
-11 261 -8 348 4 301 43 569 174 767 375 39 39 111 125 161 191 50 66 155 206
234 310 80 105 202 267 273 360 185 245 227 284 346 325 155 52 321 12 437
-105 72 -72 105 -140 98 -197 -25 -184 -161 -336 -331 -368 -59 -11 -160 -6
-210 11 -40 12 -134 57 -143 68 -3 3 -26 25 -51 49 l-46 44 -80 -104 c-119
-154 -114 -140 -69 -187 36 -37 38 -41 22 -56 -45 -45 -43 -55 20 -115 123
-115 330 -190 504 -184 336 13 609 235 696 565 18 66 25 235 12 299 -4 19 -10
58 -13 85 -3 28 -8 61 -11 75 -2 14 -7 38 -10 55 -3 16 -19 62 -35 102 -134
321 -485 507 -824 437z"/>
</g>
</svg>
